<?xml version="1.0" standalone="no"?><!DOCTYPE svg PUBLIC "-//W3C//DTD SVG 1.1//EN" "http://www.w3.org/Graphics/SVG/1.1/DTD/svg11.dtd"><svg t="1650249183387" class="icon" viewBox="0 0 1062 1024" version="1.1" xmlns="http://www.w3.org/2000/svg" p-id="2033" xmlns:xlink="http://www.w3.org/1999/xlink" width="207.421875" height="200"><defs><style type="text/css">@font-face { font-family: "feedback-iconfont"; src: url("//at.alicdn.com/t/font_1031158_u69w8yhxdu.woff2?t=1630033759944") format("woff2"), url("//at.alicdn.com/t/font_1031158_u69w8yhxdu.woff?t=1630033759944") format("woff"), url("//at.alicdn.com/t/font_1031158_u69w8yhxdu.ttf?t=1630033759944") format("truetype"); }
</style></defs><path d="M876.087467 217.6l-200.533334-200.533333-260.266666 200.533333v473.557333h460.8z" fill="#F0F0FF" p-id="2034"></path><path d="M888.1536 205.533867l-200.533333-200.5376a17.079467 17.079467 0 0 0-22.4896-1.450667l-260.266667 200.533333A17.083733 17.083733 0 0 0 398.212267 217.6v473.557333a17.066667 17.066667 0 0 0 17.066666 17.066667h460.8a17.066667 17.066667 0 0 0 17.066667-17.066667V217.6a17.024 17.024 0 0 0-4.992-12.066133z m-12.066133 468.5568h-460.8a17.066667 17.066667 0 0 1 17.066666 17.066666V217.6a17.070933 17.070933 0 0 1-6.651733 13.521067l260.266667-200.533334a17.066667 17.066667 0 0 1-22.485334-1.450666l200.533334 200.529066A17.070933 17.070933 0 0 1 859.016533 217.6v473.557333a17.0752 17.0752 0 0 1 17.070934-17.066666z" fill="#6E6E96" p-id="2035"></path><path d="M603.0208 217.6l-200.533333-200.533333-200.533334 200.533333v473.557333h401.066667z" fill="#F0F0FF" p-id="2036"></path><path d="M615.086933 205.533867l-200.533333-200.5376a17.066667 17.066667 0 0 0-24.132267 0L189.883733 205.533867A17.066667 17.066667 0 0 0 184.887467 217.6v473.557333a17.066667 17.066667 0 0 0 17.066666 17.066667h401.066667a17.066667 17.066667 0 0 0 17.066667-17.066667V217.6a17.066667 17.066667 0 0 0-5.000534-12.066133z m-12.066133 468.5568h-401.066667a17.066667 17.066667 0 0 1 17.066667 17.066666V217.6a17.0624 17.0624 0 0 1-4.996267 12.066133L414.5536 29.137067a17.066667 17.066667 0 0 1-24.132267 0l200.533334 200.529066A17.070933 17.070933 0 0 1 585.954133 217.6v473.557333a17.066667 17.066667 0 0 1 17.066667-17.066666z" fill="#6E6E96" p-id="2037"></path><path d="M603.0208 217.6h273.066667l-200.533334-200.533333h-273.066666z" fill="#FF87AB" p-id="2038"></path><path d="M603.0208 234.666667h273.066667a17.066667 17.066667 0 1 0 12.066133-29.1328l-200.533333-200.5376A17.053867 17.053867 0 0 0 675.554133 0h-273.066666a17.066667 17.066667 0 0 0-12.066134 29.137067l200.533334 200.529066A17.058133 17.058133 0 0 0 603.0208 234.666667z m-200.533333-200.533334h273.066666a17.053867 17.053867 0 0 1-12.066133-4.996266l200.533333 200.529066a17.045333 17.045333 0 0 1-3.694933-18.594133 17.053867 17.053867 0 0 1 15.761067-10.538667h-273.066667c4.5312 0 8.866133 1.800533 12.066133 5.000534l-200.533333-200.5376A17.0624 17.0624 0 0 1 402.487467 34.133333z" fill="#6E6E96" p-id="2039"></path><path d="M311.466667 472.136533h164.9792v219.0208H311.466667z" fill="#D4B696" p-id="2040"></path><path d="M476.445867 674.090667H311.466667a17.066667 17.066667 0 0 1 17.066666 17.066666v-219.0208a17.066667 17.066667 0 0 1-17.066666 17.066667h164.9792a17.066667 17.066667 0 0 1-17.066667-17.066667v219.0208a17.066667 17.066667 0 0 1 17.066667-17.066666z m0-219.0208H311.466667a17.066667 17.066667 0 0 0-17.066667 17.066666v219.0208a17.066667 17.066667 0 0 0 17.066667 17.066667h164.9792a17.066667 17.066667 0 0 0 17.066666-17.066667v-219.0208a17.066667 17.066667 0 0 0-17.066666-17.066666z" fill="#6E6E96" p-id="2041"></path><path d="M671.287467 472.136533h136.533333v136.533334h-136.533333z" fill="#9FCDFF" p-id="2042"></path><path d="M807.8208 591.6032h-136.533333a17.066667 17.066667 0 0 1 17.066666 17.066667v-136.533334a17.066667 17.066667 0 0 1-17.066666 17.066667h136.533333a17.066667 17.066667 0 0 1-17.066667-17.066667v136.533334a17.066667 17.066667 0 0 1 17.066667-17.066667z m0-136.533333h-136.533333a17.066667 17.066667 0 0 0-17.066667 17.066666v136.533334a17.066667 17.066667 0 0 0 17.066667 17.066666h136.533333a17.066667 17.066667 0 0 0 17.066667-17.066666v-136.533334a17.066667 17.066667 0 0 0-17.066667-17.066666z" fill="#6E6E96" p-id="2043"></path><path d="M399.645867 248.989867m-55.466667 0a55.466667 55.466667 0 1 0 110.933333 0 55.466667 55.466667 0 1 0-110.933333 0Z" fill="#9FCDFF" p-id="2044"></path><path d="M438.045867 248.989867c0 21.175467-17.2288 38.4-38.4 38.4-21.175467 0-38.4-17.224533-38.4-38.4s17.224533-38.4 38.4-38.4c21.1712 0 38.4 17.2288 38.4 38.4z m-38.4-72.529067c-40 0-72.5376 32.5376-72.5376 72.533333 0 40 32.5376 72.533333 72.5376 72.533334 39.991467 0 72.533333-32.533333 72.533333-72.533334 0-39.995733-32.541867-72.533333-72.533333-72.533333z" fill="#6E6E96" p-id="2045"></path><path d="M328.533333 489.2032h130.845867v31.287467H328.533333zM219.0208 264.533333l181.333333-181.333333 185.6 185.6h290.133334V223.287467h-273.066667L399.645867 19.912533 210.487467 209.066667z" fill="#6E6E96" opacity=".15" p-id="2046"></path><path d="M368.354133 583.0656m-18.491733 0a18.491733 18.491733 0 1 0 36.983467 0 18.491733 18.491733 0 1 0-36.983467 0Z" fill="#6E6E96" p-id="2047"></path><path d="M688.354133 573.824l84.6208-84.6208h-84.6208zM688.354133 591.6032l102.4-102.4v24.887467l-77.512533 77.512533z" fill="#FFFFFF" opacity=".29" p-id="2048"></path><path d="M722.487467 472.136533v136.533334a17.066667 17.066667 0 0 0 34.133333 0v-136.533334a17.066667 17.066667 0 0 0-34.133333 0z" fill="#6E6E96" p-id="2049"></path><path d="M671.287467 556.049067h136.533333a17.066667 17.066667 0 0 0 0-34.133334h-136.533333a17.066667 17.066667 0 0 0 0 34.133334z" fill="#6E6E96" p-id="2050"></path><path d="M465.7536 56.200533h224.797867L675.554133 34.133333H443.690667z" fill="#FFFFFF" opacity=".15" p-id="2051"></path><path d="M691.2 640l-200.533333-200.533333-260.266667 200.533333v366.933333h460.8z" fill="#F0F0FF" p-id="2052"></path><path d="M703.266133 627.933867l-200.533333-200.533334a17.066667 17.066667 0 0 0-22.485333-1.450666l-260.266667 200.533333A17.066667 17.066667 0 0 0 213.333333 640v366.933333a17.066667 17.066667 0 0 0 17.066667 17.066667h460.8a17.066667 17.066667 0 0 0 17.066667-17.066667v-366.933333a17.066667 17.066667 0 0 0-5.000534-12.066133zM691.2 989.866667H230.4a17.066667 17.066667 0 0 1 17.066667 17.066666v-366.933333a17.070933 17.070933 0 0 1-6.651734 13.521067l260.266667-200.533334a17.066667 17.066667 0 0 1-22.485333-1.450666l200.533333 200.533333a17.079467 17.079467 0 0 1-5.000533-12.066133v366.933333A17.0752 17.0752 0 0 1 691.2 989.866667z" fill="#6E6E96" p-id="2053"></path><path d="M418.133333 640l-200.533333-200.533333-200.533333 200.533333v366.933333h401.066666z" fill="#F0F0FF" p-id="2054"></path><path d="M430.203733 627.933867l-200.533333-200.533334a17.066667 17.066667 0 0 0-24.136533 0l-200.533334 200.533334A17.045333 17.045333 0 0 0 0 640v366.933333a17.066667 17.066667 0 0 0 17.066667 17.066667h401.066666a17.066667 17.066667 0 0 0 17.066667-17.066667v-366.933333a17.0624 17.0624 0 0 0-4.996267-12.066133zM418.133333 989.866667H17.066667a17.066667 17.066667 0 0 1 17.066666 17.066666v-366.933333a17.0624 17.0624 0 0 1-4.996266 12.066133l200.533333-200.533333a17.066667 17.066667 0 0 1-24.136533 0l200.533333 200.533333A17.045333 17.045333 0 0 1 401.066667 640v366.933333a17.066667 17.066667 0 0 1 17.066666-17.066666z" fill="#6E6E96" p-id="2055"></path><path d="M418.133333 640h273.066667l-200.533333-200.533333H217.6z" fill="#FF87AB" p-id="2056"></path><path d="M418.133333 657.066667h273.066667a17.0624 17.0624 0 0 0 12.066133-29.1328l-200.533333-200.533334A17.045333 17.045333 0 0 0 490.666667 422.4H217.6a17.066667 17.066667 0 0 0-12.066133 29.1328l200.533333 200.533333A17.066667 17.066667 0 0 0 418.133333 657.066667z m-200.533333-200.533334h273.066667a17.079467 17.079467 0 0 1-12.0704-4.996266l200.533333 200.533333a17.045333 17.045333 0 0 1-3.694933-18.594133 17.058133 17.058133 0 0 1 15.761066-10.538667H418.133333c4.526933 0 8.866133 1.800533 12.0704 5.000533l-200.533333-200.533333A17.066667 17.066667 0 0 1 217.6 456.533333z" fill="#6E6E96" p-id="2057"></path><path d="M126.5792 787.912533h164.9792V1006.933333H126.5792z" fill="#D4B696" p-id="2058"></path><path d="M291.554133 989.866667H126.5792a17.066667 17.066667 0 0 1 17.066667 17.066666v-219.0208a17.066667 17.066667 0 0 1-17.066667 17.066667h164.9792a17.066667 17.066667 0 0 1-17.066667-17.066667V1006.933333a17.066667 17.066667 0 0 1 17.0624-17.066666z m0-219.0208H126.5792a17.066667 17.066667 0 0 0-17.066667 17.066666V1006.933333a17.066667 17.066667 0 0 0 17.066667 17.066667h164.9792a17.066667 17.066667 0 0 0 17.066667-17.066667v-219.0208a17.0752 17.0752 0 0 0-17.070934-17.066666z" fill="#6E6E96" p-id="2059"></path><path d="M486.4 787.912533h136.533333v136.533334h-136.533333z" fill="#9FCDFF" p-id="2060"></path><path d="M622.933333 907.3792h-136.533333a17.066667 17.066667 0 0 1 17.066667 17.066667v-136.533334a17.066667 17.066667 0 0 1-17.066667 17.066667h136.533333a17.066667 17.066667 0 0 1-17.066666-17.066667v136.533334a17.066667 17.066667 0 0 1 17.066666-17.066667z m0-136.533333h-136.533333a17.066667 17.066667 0 0 0-17.066667 17.066666v136.533334a17.066667 17.066667 0 0 0 17.066667 17.066666h136.533333a17.066667 17.066667 0 0 0 17.066667-17.066666v-136.533334a17.066667 17.066667 0 0 0-17.066667-17.066666z" fill="#6E6E96" p-id="2061"></path><path d="M214.754133 640m-55.466666 0a55.466667 55.466667 0 1 0 110.933333 0 55.466667 55.466667 0 1 0-110.933333 0Z" fill="#9FCDFF" p-id="2062"></path><path d="M253.154133 640c0 21.175467-17.2288 38.4-38.4 38.4s-38.4-17.224533-38.4-38.4 17.2288-38.4 38.4-38.4 38.4 17.224533 38.4 38.4z m-38.4-72.533333c-39.995733 0-72.533333 32.5376-72.533333 72.533333s32.5376 72.533333 72.533333 72.533333 72.533333-32.5376 72.533334-72.533333-32.533333-72.533333-72.533334-72.533333z" fill="#6E6E96" p-id="2063"></path><path d="M143.645867 804.9792h130.845866V836.266667H143.645867zM34.133333 686.933333l181.333334-181.333333L401.066667 691.2h290.133333v-45.512533H418.133333l-203.3792-203.374934L25.6 631.466667z" fill="#6E6E96" opacity=".15" p-id="2064"></path><path d="M183.466667 898.8416m-18.487467 0a18.487467 18.487467 0 1 0 36.974933 0 18.487467 18.487467 0 1 0-36.974933 0Z" fill="#6E6E96" p-id="2065"></path><path d="M503.466667 889.6l84.6208-84.6208H503.466667zM503.466667 907.3792l102.4-102.4v24.887467l-77.512534 77.512533z" fill="#FFFFFF" opacity=".29" p-id="2066"></path><path d="M537.6 787.912533v136.533334a17.066667 17.066667 0 0 0 34.133333 0v-136.533334a17.066667 17.066667 0 0 0-34.133333 0z" fill="#6E6E96" p-id="2067"></path><path d="M486.4 871.825067h136.533333a17.066667 17.066667 0 0 0 0-34.133334h-136.533333a17.066667 17.066667 0 0 0 0 34.133334z" fill="#6E6E96" p-id="2068"></path><path d="M280.8704 478.600533h224.7936L490.666667 456.533333H258.8032z" fill="#FFFFFF" opacity=".15" p-id="2069"></path><path d="M1045.333333 533.376l-200.533333-200.533333-260.266667 200.533333V1006.933333h460.8z" fill="#F0F0FF" p-id="2070"></path><path d="M1057.399467 521.309867l-200.533334-200.533334a17.0752 17.0752 0 0 0-22.485333-1.450666l-260.266667 200.533333a17.1008 17.1008 0 0 0-6.656 13.521067V1006.933333a17.066667 17.066667 0 0 0 17.066667 17.066667h460.8a17.066667 17.066667 0 0 0 17.066667-17.066667V533.376a17.024 17.024 0 0 0-4.992-12.066133zM1045.333333 989.866667H584.533333a17.066667 17.066667 0 0 1 17.066667 17.066666V533.376a17.088 17.088 0 0 1-6.651733 13.525333l260.266666-200.533333a17.0752 17.0752 0 0 1-22.4896-1.450667l200.533334 200.529067a17.070933 17.070933 0 0 1-5.000534-12.066133V1006.933333a17.079467 17.079467 0 0 1 17.0752-17.066666z" fill="#6E6E96" p-id="2071"></path><path d="M772.266667 533.376l-200.533334-200.533333-200.533333 200.533333V1006.933333h401.066667z" fill="#F0F0FF" p-id="2072"></path><path d="M784.3328 521.309867l-200.533333-200.533334a17.066667 17.066667 0 0 0-24.132267 0l-200.5376 200.533334A17.0752 17.0752 0 0 0 354.133333 533.376V1006.933333a17.066667 17.066667 0 0 0 17.066667 17.066667h401.066667a17.066667 17.066667 0 0 0 17.066666-17.066667V533.376a17.066667 17.066667 0 0 0-5.000533-12.066133zM772.266667 989.866667H371.2a17.066667 17.066667 0 0 1 17.066667 17.066666V533.376a17.0624 17.0624 0 0 1-4.996267 12.066133l200.529067-200.529066a17.066667 17.066667 0 0 1-24.132267 0l200.533333 200.529066A17.070933 17.070933 0 0 1 755.2 533.376V1006.933333a17.066667 17.066667 0 0 1 17.066667-17.066666z" fill="#6E6E96" p-id="2073"></path><path d="M772.266667 533.376h273.066666l-200.533333-200.533333h-273.066667z" fill="#FF87AB" p-id="2074"></path><path d="M772.266667 550.442667h273.066666a17.066667 17.066667 0 0 0 12.066134-29.1328l-200.533334-200.533334A17.066667 17.066667 0 0 0 844.8 315.780267h-273.066667a17.066667 17.066667 0 0 0-12.066133 29.137066l200.533333 200.529067A17.079467 17.079467 0 0 0 772.266667 550.442667z m-200.533334-200.533334h273.066667a17.0624 17.0624 0 0 1-12.066133-4.996266l200.533333 200.529066A17.0624 17.0624 0 1 1 1045.333333 516.309333h-273.066666a17.066667 17.066667 0 0 1 12.066133 5.000534l-200.533333-200.533334A17.0624 17.0624 0 0 1 571.733333 349.909333z" fill="#6E6E96" p-id="2075"></path><path d="M480.712533 787.912533h164.9792V1006.933333h-164.9792z" fill="#D4B696" p-id="2076"></path><path d="M645.691733 989.866667h-164.9792a17.066667 17.066667 0 0 1 17.066667 17.066666v-219.0208a17.066667 17.066667 0 0 1-17.066667 17.066667h164.9792a17.066667 17.066667 0 0 1-17.066666-17.066667V1006.933333a17.066667 17.066667 0 0 1 17.066666-17.066666z m0-219.0208h-164.9792a17.066667 17.066667 0 0 0-17.066666 17.066666V1006.933333a17.066667 17.066667 0 0 0 17.066666 17.066667h164.9792a17.066667 17.066667 0 0 0 17.066667-17.066667v-219.0208a17.066667 17.066667 0 0 0-17.066667-17.066666z" fill="#6E6E96" p-id="2077"></path><path d="M840.533333 787.912533h136.533334v136.533334h-136.533334z" fill="#9FCDFF" p-id="2078"></path><path d="M977.066667 907.3792h-136.533334a17.066667 17.066667 0 0 1 17.066667 17.066667v-136.533334a17.066667 17.066667 0 0 1-17.066667 17.066667h136.533334a17.066667 17.066667 0 0 1-17.066667-17.066667v136.533334a17.066667 17.066667 0 0 1 17.066667-17.066667z m0-136.533333h-136.533334a17.066667 17.066667 0 0 0-17.066666 17.066666v136.533334a17.066667 17.066667 0 0 0 17.066666 17.066666h136.533334a17.066667 17.066667 0 0 0 17.066666-17.066666v-136.533334a17.066667 17.066667 0 0 0-17.066666-17.066666z" fill="#6E6E96" p-id="2079"></path><path d="M575.291733 592.4992m-78.933333 0a78.933333 78.933333 0 1 0 157.866667 0 78.933333 78.933333 0 1 0-157.866667 0Z" fill="#9FCDFF" p-id="2080"></path><path d="M575.291733 688.4992c-52.936533 0-96-43.067733-96-96s43.063467-96 96-96c52.932267 0 96 43.067733 96 96s-43.067733 96-96 96z m0-157.866667c-34.112 0-61.866667 27.754667-61.866666 61.866667s27.754667 61.866667 61.866666 61.866667 61.866667-27.754667 61.866667-61.866667-27.754667-61.866667-61.866667-61.866667z" fill="#6E6E96" p-id="2081"></path><path d="M497.7792 804.9792h130.845867V836.266667h-130.845867z" fill="#6E6E96" opacity=".15" p-id="2082"></path><path d="M388.266667 580.309333l181.333333-181.333333 185.6 185.6h290.133333v-45.512533h-273.066666l-203.374934-203.374934L379.733333 524.842667z" fill="#6E6E96" opacity=".15" p-id="2083"></path><path d="M537.6 898.8416m-18.491733 0a18.491733 18.491733 0 1 0 36.983466 0 18.491733 18.491733 0 1 0-36.983466 0Z" fill="#6E6E96" p-id="2084"></path><path d="M857.6 889.6l84.6208-84.6208H857.6z" fill="#FFFFFF" opacity=".29" p-id="2085"></path><path d="M857.6 907.3792l102.4-102.4v24.887467l-77.512533 77.512533z" fill="#FFFFFF" opacity=".29" p-id="2086"></path><path d="M891.733333 787.912533v136.533334a17.066667 17.066667 0 0 0 34.133334 0v-136.533334a17.066667 17.066667 0 0 0-34.133334 0z" fill="#6E6E96" p-id="2087"></path><path d="M840.533333 871.825067h136.533334a17.066667 17.066667 0 0 0 0-34.133334h-136.533334a17.066667 17.066667 0 0 0 0 34.133334z" fill="#6E6E96" p-id="2088"></path><path d="M634.999467 371.976533h224.802133L844.8 349.909333h-231.863467z" fill="#FFFFFF" opacity=".15" p-id="2089"></path></svg>